<svg width="135" height="40" viewBox="0 0 135 40" fill="none" xmlns="http://www.w3.org/2000/svg">
<path fill-rule="evenodd" clip-rule="evenodd" d="M40.9628 38V39.9986H40.2656V38H40.9628Z" fill="currentColor"/>
<path fill-rule="evenodd" clip-rule="evenodd" d="M36.0486 29V39.9994H35.1094V29H36.0486Z" fill="currentColor"/>
<path fill-rule="evenodd" clip-rule="evenodd" d="M31.1344 19.5V40.0002H29.9531V19.5H31.1344Z" fill="currentColor"/>
<path fill-rule="evenodd" clip-rule="evenodd" d="M26.228 10V39.9991H24.8047V10H26.228Z" fill="currentColor"/>
<path fill-rule="evenodd" clip-rule="evenodd" d="M21.3099 0V39.9999H19.6445V0H21.3099Z" fill="currentColor"/>
<path fill-rule="evenodd" clip-rule="evenodd" d="M16.1577 10V39.9991H14.7344V10H16.1577Z" fill="currentColor"/>
<path fill-rule="evenodd" clip-rule="evenodd" d="M11.0094 20V40.0002H9.82812V20H11.0094Z" fill="currentColor"/>
<path fill-rule="evenodd" clip-rule="evenodd" d="M5.84935 29V39.9994H4.91016V29H5.84935Z" fill="currentColor"/>
<path fill-rule="evenodd" clip-rule="evenodd" d="M0.697131 38V39.9986H0L0 38H0.697131Z" fill="currentColor"/>
<path d="M62.9569 6.14073L58.9329 17.815H56.5L61.5693 4.34611H63.1234L62.9569 6.14073ZM66.3241 17.815L62.2909 6.14073L62.1151 4.34611H63.6785L68.7663 17.815H66.3241ZM66.1299 12.8197V14.6605H58.8034V12.8197H66.1299Z" fill="currentColor"/>
<path d="M77.3601 14.346C77.3601 14.0685 77.3169 13.8218 77.2306 13.606C77.1504 13.3901 77.0055 13.1928 76.7958 13.0139C76.5861 12.8351 76.2901 12.6624 75.9078 12.4959C75.5316 12.3232 75.0505 12.1475 74.4647 11.9686C73.8233 11.7713 73.2313 11.5523 72.6886 11.3118C72.152 11.0651 71.6833 10.7814 71.2825 10.4608C70.8816 10.1339 70.5702 9.7608 70.3481 9.34144C70.1261 8.91591 70.0151 8.42563 70.0151 7.87059C70.0151 7.32172 70.1292 6.82219 70.3574 6.372C70.5917 5.9218 70.9217 5.53327 71.3472 5.20642C71.7789 4.8734 72.2877 4.61747 72.8736 4.43862C73.4594 4.25361 74.107 4.1611 74.8162 4.1611C75.8152 4.1611 76.6755 4.34611 77.3971 4.71614C78.1248 5.08616 78.6829 5.58261 79.0715 6.20548C79.4661 6.82836 79.6635 7.51599 79.6635 8.26837H77.3601C77.3601 7.82434 77.2645 7.43273 77.0733 7.09354C76.8883 6.74819 76.6046 6.47684 76.2223 6.27949C75.8461 6.08214 75.3681 5.98347 74.7884 5.98347C74.2396 5.98347 73.7832 6.06673 73.4193 6.23324C73.0555 6.39975 72.7841 6.62485 72.6053 6.90853C72.4264 7.19222 72.337 7.5129 72.337 7.87059C72.337 8.12344 72.3956 8.35471 72.5128 8.56439C72.63 8.7679 72.8088 8.95908 73.0493 9.13792C73.2898 9.3106 73.592 9.47403 73.9559 9.62821C74.3197 9.78238 74.7483 9.93039 75.2417 10.0722C75.9879 10.2942 76.6386 10.5409 77.1936 10.8123C77.7486 11.0775 78.2112 11.3797 78.5812 11.7188C78.9512 12.058 79.2287 12.4435 79.4137 12.8752C79.5987 13.3007 79.6913 13.7848 79.6913 14.3275C79.6913 14.8949 79.5772 15.4067 79.349 15.8631C79.1208 16.3133 78.7939 16.6987 78.3684 17.0194C77.949 17.334 77.4434 17.5776 76.8513 17.7502C76.2654 17.9167 75.6117 18 74.8902 18C74.2426 18 73.6044 17.9137 72.9753 17.741C72.3524 17.5683 71.7851 17.3062 71.2732 16.9547C70.7613 16.597 70.3543 16.153 70.0521 15.6226C69.7499 15.0861 69.5988 14.4601 69.5988 13.7447H71.9207C71.9207 14.1826 71.9948 14.5557 72.1428 14.864C72.2969 15.1724 72.5097 15.4252 72.7811 15.6226C73.0524 15.8138 73.3669 15.9556 73.7246 16.0481C74.0885 16.1406 74.477 16.1869 74.8902 16.1869C75.4329 16.1869 75.8862 16.1098 76.25 15.9556C76.6201 15.8014 76.8976 15.5856 77.0826 15.3081C77.2676 15.0306 77.3601 14.7099 77.3601 14.346Z" fill="currentColor"/>
<path d="M87.286 4.34611V17.815H84.9826V4.34611H87.286ZM91.5135 4.34611V6.19623H80.7921V4.34611H91.5135Z" fill="currentColor"/>
<path d="M93.2896 4.34611H98.0537C99.0774 4.34611 99.9501 4.50029 100.672 4.80864C101.393 5.117 101.945 5.57336 102.327 6.17773C102.716 6.77594 102.91 7.51599 102.91 8.39788C102.91 9.07009 102.787 9.66212 102.54 10.174C102.294 10.6859 101.945 11.1176 101.495 11.4691C101.045 11.8144 100.508 12.0827 99.8853 12.2739L99.1823 12.6161H94.8992L94.8807 10.7753H98.0907C98.6457 10.7753 99.1083 10.6766 99.4783 10.4793C99.8483 10.2819 100.126 10.0136 100.311 9.67446C100.502 9.3291 100.598 8.94058 100.598 8.50888C100.598 8.04019 100.505 7.63316 100.32 7.28781C100.141 6.93628 99.8637 6.66802 99.4875 6.483C99.1113 6.29182 98.6334 6.19623 98.0537 6.19623H95.6115V17.815H93.2896V4.34611ZM100.977 17.815L97.8132 11.7651L100.246 11.7558L103.456 17.6947V17.815H100.977Z" fill="currentColor"/>
<path d="M115.963 10.7105V11.4506C115.963 12.4681 115.83 13.3809 115.565 14.1888C115.3 14.9966 114.921 15.6843 114.427 16.2516C113.94 16.819 113.354 17.2538 112.67 17.556C111.985 17.852 111.227 18 110.394 18C109.568 18 108.812 17.852 108.128 17.556C107.449 17.2538 106.86 16.819 106.361 16.2516C105.861 15.6843 105.473 14.9966 105.195 14.1888C104.924 13.3809 104.788 12.4681 104.788 11.4506V10.7105C104.788 9.69296 104.924 8.78332 105.195 7.9816C105.467 7.17371 105.849 6.48609 106.342 5.91872C106.842 5.34518 107.431 4.9104 108.109 4.61438C108.794 4.3122 109.549 4.1611 110.375 4.1611C111.208 4.1611 111.967 4.3122 112.651 4.61438C113.336 4.9104 113.925 5.34518 114.418 5.91872C114.911 6.48609 115.291 7.17371 115.556 7.9816C115.827 8.78332 115.963 9.69296 115.963 10.7105ZM113.641 11.4506V10.692C113.641 9.93964 113.567 9.27668 113.419 8.70315C113.277 8.12344 113.064 7.63933 112.781 7.2508C112.503 6.85611 112.161 6.56009 111.754 6.36275C111.347 6.15923 110.887 6.05748 110.375 6.05748C109.864 6.05748 109.407 6.15923 109.006 6.36275C108.606 6.56009 108.263 6.85611 107.98 7.2508C107.702 7.63933 107.489 8.12344 107.341 8.70315C107.193 9.27668 107.119 9.93964 107.119 10.692V11.4506C107.119 12.203 107.193 12.869 107.341 13.4487C107.489 14.0284 107.705 14.5187 107.989 14.9195C108.279 15.3142 108.624 15.6133 109.025 15.8169C109.426 16.0142 109.882 16.1129 110.394 16.1129C110.912 16.1129 111.371 16.0142 111.772 15.8169C112.173 15.6133 112.512 15.3142 112.79 14.9195C113.067 14.5187 113.277 14.0284 113.419 13.4487C113.567 12.869 113.641 12.203 113.641 11.4506Z" fill="currentColor"/>
<path d="M131.476 10.433V12.4404H122.244V10.433H131.476ZM127.942 6.65876V16.4644H125.787V6.65876H127.942Z" fill="currentColor"/>
<path d="M62.6331 34.3294H58.7941V33.3581H62.6331C63.4349 33.3581 64.0855 33.2286 64.585 32.9695C65.0907 32.7044 65.4577 32.3467 65.6858 31.8965C65.9202 31.4463 66.0374 30.9406 66.0374 30.3794C66.0374 29.8305 65.9202 29.3248 65.6858 28.8623C65.4577 28.3997 65.0907 28.0297 64.585 27.7522C64.0855 27.4685 63.4349 27.3267 62.6331 27.3267H59.1919V39.815H58.0541V26.3461H62.6331C63.6199 26.3461 64.4493 26.5157 65.1216 26.8549C65.7999 27.1941 66.3118 27.6659 66.6572 28.2702C67.0025 28.8746 67.1752 29.5715 67.1752 30.3609C67.1752 31.1873 67.0025 31.8996 66.6572 32.4978C66.3118 33.0898 65.803 33.5431 65.1308 33.8576C64.4586 34.1721 63.626 34.3294 62.6331 34.3294Z" fill="currentColor"/>
<path d="M72.8736 27.1509L68.2113 39.815H67.0272L72.115 26.3461H72.9383L72.8736 27.1509ZM77.1103 39.815L72.4388 27.1509L72.374 26.3461H73.1973L78.2944 39.815H77.1103ZM76.2778 35.0602V36.0407H69.1271V35.0602H76.2778Z" fill="currentColor"/>
<path d="M79.2842 26.3461L83.3637 33.6818L87.4803 26.3461H88.7938L83.9373 34.7364V39.815H82.7995V34.7364L77.9336 26.3461H79.2842Z" fill="currentColor"/>
<path d="M98.5532 38.8437V39.815H91.569V38.8437H98.5532ZM91.902 26.3461V39.815H90.7642V26.3461H91.902Z" fill="currentColor"/>
<path d="M110.089 32.359V33.8021C110.089 34.7457 109.965 35.5998 109.719 36.3645C109.478 37.1231 109.127 37.7737 108.664 38.3164C108.208 38.8591 107.659 39.2754 107.018 39.5652C106.376 39.8551 105.655 40 104.853 40C104.07 40 103.354 39.8551 102.707 39.5652C102.065 39.2754 101.513 38.8591 101.051 38.3164C100.588 37.7737 100.231 37.1231 99.9778 36.3645C99.725 35.5998 99.5985 34.7457 99.5985 33.8021V32.359C99.5985 31.4154 99.7219 30.5644 99.9686 29.8058C100.221 29.0411 100.579 28.3874 101.042 27.8447C101.504 27.302 102.056 26.8857 102.697 26.5959C103.339 26.306 104.051 26.1611 104.834 26.1611C105.636 26.1611 106.358 26.306 106.999 26.5959C107.64 26.8857 108.192 27.302 108.655 27.8447C109.117 28.3874 109.472 29.0411 109.719 29.8058C109.965 30.5644 110.089 31.4154 110.089 32.359ZM108.96 33.8021V32.3405C108.96 31.545 108.868 30.8296 108.683 30.1944C108.504 29.5592 108.236 29.0165 107.878 28.5663C107.526 28.1161 107.095 27.7707 106.583 27.5302C106.071 27.2897 105.488 27.1694 104.834 27.1694C104.199 27.1694 103.629 27.2897 103.123 27.5302C102.617 27.7707 102.186 28.1161 101.828 28.5663C101.476 29.0165 101.205 29.5592 101.014 30.1944C100.829 30.8296 100.736 31.545 100.736 32.3405V33.8021C100.736 34.6038 100.829 35.3254 101.014 35.9667C101.205 36.6019 101.479 37.1477 101.837 37.6041C102.195 38.0543 102.627 38.3996 103.132 38.6402C103.644 38.8807 104.218 39.0009 104.853 39.0009C105.513 39.0009 106.096 38.8807 106.601 38.6402C107.107 38.3996 107.536 38.0543 107.887 37.6041C108.239 37.1477 108.504 36.6019 108.683 35.9667C108.868 35.3254 108.96 34.6038 108.96 33.8021Z" fill="currentColor"/>
<path d="M117.184 27.1509L112.522 39.815H111.338L116.425 26.3461H117.249L117.184 27.1509ZM121.421 39.815L116.749 27.1509L116.684 26.3461H117.508L122.605 39.815H121.421ZM120.588 35.0602V36.0407H113.437V35.0602H120.588Z" fill="currentColor"/>
<path d="M128.285 39.815H125.232L125.25 38.8437H128.285C129.253 38.8437 130.085 38.6278 130.782 38.1961C131.485 37.7583 132.028 37.1539 132.41 36.383C132.793 35.6121 132.984 34.7179 132.984 33.7003V32.4423C132.984 31.6652 132.873 30.9622 132.651 30.3331C132.435 29.7041 132.124 29.1675 131.717 28.7235C131.31 28.2733 130.822 27.928 130.255 27.6875C129.694 27.4469 129.065 27.3267 128.368 27.3267H125.176V26.3461H128.368C129.207 26.3461 129.974 26.491 130.671 26.7809C131.374 27.0646 131.982 27.4778 132.494 28.0205C133.012 28.557 133.409 29.2015 133.687 29.9538C133.971 30.7062 134.113 31.5449 134.113 32.47V33.7003C134.113 34.6254 133.971 35.4641 133.687 36.2165C133.409 36.9689 133.012 37.6133 132.494 38.1499C131.976 38.6864 131.362 39.0996 130.653 39.3895C129.944 39.6731 129.154 39.815 128.285 39.815ZM125.741 26.3461V39.815H124.603V26.3461H125.741Z" fill="currentColor"/>
</svg>
