<svg width="322" height="369" viewBox="0 0 322 369" fill="none" xmlns="http://www.w3.org/2000/svg">
<path d="M17.239 279.707L6.75094 310.135H0.409882L13.6224 275.03H17.673L17.239 279.707ZM26.0152 310.135L15.503 279.707L15.0449 275.03H19.1196L32.3804 310.135H26.0152ZM25.5089 297.115V301.913H6.41339V297.115H25.5089Z" fill="white"/>
<path d="M54.779 301.093C54.779 300.37 54.6665 299.727 54.4415 299.164C54.2325 298.602 53.8548 298.088 53.3083 297.621C52.7618 297.155 51.9903 296.705 50.9937 296.271C50.0132 295.821 48.7594 295.363 47.2324 294.897C45.5608 294.383 44.0177 293.812 42.6032 293.185C41.2048 292.542 39.9832 291.803 38.9384 290.967C37.8937 290.115 37.0819 289.143 36.5033 288.05C35.9246 286.94 35.6353 285.663 35.6353 284.216C35.6353 282.785 35.9327 281.483 36.5274 280.31C37.1382 279.137 37.9981 278.124 39.1072 277.272C40.2324 276.404 41.5584 275.737 43.0854 275.271C44.6124 274.789 46.3002 274.548 48.1486 274.548C50.7526 274.548 52.9949 275.03 54.8755 275.994C56.7722 276.959 58.2268 278.253 59.2395 279.876C60.2682 281.5 60.7825 283.292 60.7825 285.253H54.779C54.779 284.095 54.5299 283.075 54.0316 282.191C53.5494 281.291 52.81 280.583 51.8134 280.069C50.8329 279.555 49.5872 279.297 48.0763 279.297C46.6458 279.297 45.4563 279.514 44.508 279.948C43.5596 280.382 42.8524 280.969 42.3862 281.708C41.9201 282.448 41.687 283.284 41.687 284.216C41.687 284.875 41.8397 285.478 42.1451 286.024C42.4505 286.555 42.9167 287.053 43.5435 287.519C44.1704 287.969 44.958 288.395 45.9064 288.797C46.8547 289.199 47.9718 289.585 49.2577 289.954C51.2026 290.533 52.8984 291.176 54.345 291.883C55.7917 292.574 56.9972 293.362 57.9616 294.246C58.926 295.13 59.6493 296.135 60.1316 297.26C60.6138 298.369 60.8549 299.631 60.8549 301.045C60.8549 302.524 60.5575 303.858 59.9628 305.047C59.3681 306.221 58.5162 307.225 57.4071 308.061C56.3141 308.881 54.996 309.516 53.453 309.966C51.926 310.4 50.2221 310.617 48.3415 310.617C46.6538 310.617 44.9902 310.392 43.3507 309.942C41.7272 309.492 40.2484 308.809 38.9143 307.892C37.5802 306.96 36.5194 305.803 35.7317 304.421C34.9441 303.022 34.5503 301.391 34.5503 299.526H40.6021C40.6021 300.667 40.7949 301.64 41.1807 302.444C41.5826 303.247 42.1371 303.906 42.8443 304.421C43.5516 304.919 44.3713 305.289 45.3036 305.53C46.252 305.771 47.2646 305.891 48.3415 305.891C49.756 305.891 50.9374 305.69 51.8858 305.289C52.8502 304.887 53.5735 304.324 54.0557 303.601C54.5379 302.878 54.779 302.042 54.779 301.093Z" fill="white"/>
<path d="M80.6496 275.03V310.135H74.6461V275.03H80.6496ZM91.6681 275.03V279.852H63.724V275.03H91.6681Z" fill="white"/>
<path d="M96.2973 275.03H108.714C111.382 275.03 113.657 275.432 115.537 276.235C117.418 277.039 118.857 278.229 119.853 279.804C120.866 281.363 121.372 283.292 121.372 285.59C121.372 287.342 121.051 288.885 120.408 290.22C119.765 291.554 118.857 292.679 117.683 293.595C116.51 294.495 115.112 295.194 113.488 295.693L111.656 296.585H100.493L100.444 291.787H108.811C110.257 291.787 111.463 291.529 112.427 291.015C113.392 290.501 114.115 289.802 114.597 288.918C115.095 288.017 115.345 287.005 115.345 285.88C115.345 284.658 115.103 283.597 114.621 282.697C114.155 281.781 113.432 281.082 112.451 280.599C111.471 280.101 110.225 279.852 108.714 279.852H102.349V310.135H96.2973V275.03ZM116.333 310.135L108.087 294.367L114.428 294.342L122.795 309.821V310.135H116.333Z" fill="white"/>
<path d="M155.392 291.618V293.547C155.392 296.199 155.047 298.578 154.355 300.683C153.664 302.789 152.676 304.581 151.39 306.06C150.12 307.539 148.593 308.672 146.809 309.46C145.025 310.231 143.048 310.617 140.878 310.617C138.724 310.617 136.755 310.231 134.971 309.46C133.202 308.672 131.667 307.539 130.365 306.06C129.063 304.581 128.051 302.789 127.327 300.683C126.62 298.578 126.267 296.199 126.267 293.547V291.618C126.267 288.966 126.62 286.595 127.327 284.505C128.035 282.4 129.031 280.607 130.317 279.129C131.619 277.634 133.154 276.501 134.922 275.729C136.706 274.941 138.675 274.548 140.829 274.548C142.999 274.548 144.976 274.941 146.761 275.729C148.545 276.501 150.08 277.634 151.366 279.129C152.652 280.607 153.64 282.4 154.331 284.505C155.038 286.595 155.392 288.966 155.392 291.618ZM149.34 293.547V291.57C149.34 289.609 149.147 287.881 148.762 286.386C148.392 284.875 147.837 283.613 147.098 282.601C146.375 281.572 145.483 280.8 144.422 280.286C143.361 279.756 142.163 279.49 140.829 279.49C139.495 279.49 138.306 279.756 137.261 280.286C136.216 280.8 135.324 281.572 134.585 282.601C133.861 283.613 133.307 284.875 132.921 286.386C132.535 287.881 132.342 289.609 132.342 291.57V293.547C132.342 295.508 132.535 297.244 132.921 298.755C133.307 300.266 133.869 301.543 134.609 302.588C135.364 303.617 136.264 304.396 137.309 304.927C138.354 305.441 139.543 305.698 140.878 305.698C142.228 305.698 143.425 305.441 144.47 304.927C145.515 304.396 146.399 303.617 147.122 302.588C147.846 301.543 148.392 300.266 148.762 298.755C149.147 297.244 149.34 295.508 149.34 293.547Z" fill="white"/>
<path d="M195.825 290.895V296.127H171.763V290.895H195.825ZM186.615 281.058V306.615H180.997V281.058H186.615Z" fill="white"/>
<path d="M16.3951 353.837H6.38928V351.306H16.3951C18.4847 351.306 20.1805 350.968 21.4824 350.293C22.8005 349.602 23.7569 348.67 24.3516 347.496C24.9624 346.323 25.2678 345.005 25.2678 343.542C25.2678 342.112 24.9624 340.793 24.3516 339.588C23.7569 338.382 22.8005 337.418 21.4824 336.695C20.1805 335.955 18.4847 335.586 16.3951 335.586H7.42603V368.135H4.46044V333.03H16.3951C18.9669 333.03 21.1288 333.472 22.8809 334.356C24.649 335.24 25.9831 336.47 26.8832 338.045C27.7833 339.62 28.2334 341.436 28.2334 343.494C28.2334 345.648 27.7833 347.504 26.8832 349.063C25.9831 350.606 24.657 351.788 22.905 352.608C21.1529 353.427 18.983 353.837 16.3951 353.837Z" fill="white"/>
<path d="M43.0854 335.128L30.9338 368.135H27.8476L41.1084 333.03H43.2542L43.0854 335.128ZM54.128 368.135L41.9523 335.128L41.7835 333.03H43.9293L57.2142 368.135H54.128ZM51.9581 355.742V358.298H33.3207V355.742H51.9581Z" fill="white"/>
<path d="M59.794 333.03L70.4267 352.15L81.1559 333.03H84.5796L71.9216 354.898V368.135H68.956V354.898L56.2739 333.03H59.794Z" fill="white"/>
<path d="M110.016 365.603V368.135H91.8127V365.603H110.016ZM92.6807 333.03V368.135H89.7151V333.03H92.6807Z" fill="white"/>
<path d="M140.082 348.702V352.463C140.082 354.922 139.76 357.148 139.118 359.142C138.491 361.119 137.574 362.814 136.369 364.229C135.179 365.643 133.749 366.728 132.077 367.484C130.406 368.239 128.525 368.617 126.435 368.617C124.394 368.617 122.529 368.239 120.842 367.484C119.17 366.728 117.732 365.643 116.526 364.229C115.32 362.814 114.388 361.119 113.729 359.142C113.07 357.148 112.741 354.922 112.741 352.463V348.702C112.741 346.242 113.062 344.024 113.705 342.047C114.364 340.054 115.296 338.35 116.502 336.936C117.707 335.521 119.146 334.436 120.818 333.681C122.489 332.925 124.346 332.548 126.387 332.548C128.477 332.548 130.357 332.925 132.029 333.681C133.701 334.436 135.139 335.521 136.345 336.936C137.55 338.35 138.475 340.054 139.118 342.047C139.76 344.024 140.082 346.242 140.082 348.702ZM137.14 352.463V348.654C137.14 346.58 136.899 344.715 136.417 343.06C135.951 341.404 135.252 339.99 134.32 338.816C133.403 337.643 132.278 336.743 130.944 336.116C129.61 335.489 128.091 335.176 126.387 335.176C124.732 335.176 123.245 335.489 121.927 336.116C120.609 336.743 119.484 337.643 118.551 338.816C117.635 339.99 116.928 341.404 116.43 343.06C115.947 344.715 115.706 346.58 115.706 348.654V352.463C115.706 354.553 115.947 356.433 116.43 358.105C116.928 359.76 117.643 361.183 118.575 362.372C119.508 363.546 120.633 364.446 121.951 365.073C123.285 365.7 124.78 366.013 126.435 366.013C128.155 366.013 129.674 365.7 130.992 365.073C132.31 364.446 133.427 363.546 134.344 362.372C135.26 361.183 135.951 359.76 136.417 358.105C136.899 356.433 137.14 354.553 137.14 352.463Z" fill="white"/>
<path d="M158.575 335.128L146.423 368.135H143.337L156.598 333.03H158.743L158.575 335.128ZM169.617 368.135L157.441 335.128L157.273 333.03H159.419L172.703 368.135H169.617ZM167.447 355.742V358.298H148.81V355.742H167.447Z" fill="white"/>
<path d="M187.507 368.135H179.551L179.599 365.603H187.507C190.031 365.603 192.201 365.041 194.017 363.915C195.849 362.774 197.264 361.199 198.261 359.19C199.257 357.181 199.755 354.85 199.755 352.198V348.919C199.755 346.893 199.466 345.061 198.887 343.422C198.325 341.782 197.513 340.384 196.452 339.226C195.391 338.053 194.122 337.153 192.643 336.526C191.18 335.899 189.541 335.586 187.724 335.586H179.406V333.03H187.724C189.91 333.03 191.911 333.408 193.728 334.163C195.56 334.902 197.143 335.979 198.478 337.394C199.828 338.792 200.864 340.472 201.588 342.433C202.327 344.394 202.697 346.58 202.697 348.991V352.198C202.697 354.609 202.327 356.795 201.588 358.756C200.864 360.717 199.828 362.396 198.478 363.795C197.127 365.193 195.528 366.27 193.68 367.026C191.831 367.765 189.774 368.135 187.507 368.135ZM180.877 333.03V368.135H177.911V333.03H180.877Z" fill="white"/>
<path d="M322 211.5H315.211V223.449H322V211.5Z" fill="white"/>
<path d="M284.175 161H274.476V223.449H284.175V161Z" fill="white"/>
<path d="M245.379 112.5H233.741V223.449H245.379V112.5Z" fill="white"/>
<path d="M207.554 56H193.006V223.449H207.554V56Z" fill="white"/>
<path d="M169.729 0H152.271V223.449H169.729V0Z" fill="white"/>
<path d="M128.994 56H114.446V223.449H128.994V56Z" fill="white"/>
<path d="M88.259 112.5H76.6205V223.449H88.259V112.5Z" fill="white"/>
<path d="M47.5521 162H37.8253V223.449H47.5521V162Z" fill="white"/>
<path d="M6.78916 211.5H0L0 223.449H6.78916L6.78916 211.5Z" fill="white"/>
</svg>
